<?xml version="1.0" encoding="UTF-8"?>
<svg id="Layer_2" data-name="Layer 2" xmlns="http://www.w3.org/2000/svg" xmlns:xlink="http://www.w3.org/1999/xlink" viewBox="0 0 155.17 31.46">
  <defs>
    <style>
      .cls-1 {
        fill: url(#linear-gradient-2);
      }

      .cls-2 {
        stroke: #2e3192;
        stroke-miterlimit: 10;
        stroke-width: .75px;
      }

      .cls-2, .cls-3 {
        fill: #2e3192;
      }

      .cls-4 {
        fill: #1b144c;
      }

      .cls-5 {
        fill: url(#linear-gradient);
      }
    </style>
    <linearGradient id="linear-gradient" x1="61.03" y1="7.4" x2="57.54" y2="1.35" gradientUnits="userSpaceOnUse">
      <stop offset=".1" stop-color="#1e9cd7"/>
      <stop offset=".38" stop-color="#cce0f4"/>
      <stop offset=".41" stop-color="#c7d6f1"/>
      <stop offset=".46" stop-color="#b9bdec"/>
      <stop offset=".53" stop-color="#a393e3"/>
      <stop offset=".61" stop-color="#865ad7"/>
      <stop offset=".67" stop-color="#6c29cd"/>
      <stop offset=".97" stop-color="#6c29cd"/>
      <stop offset="1" stop-color="#c7d6f2"/>
    </linearGradient>
    <linearGradient id="linear-gradient-2" x1="134.5" y1="7.43" x2="131.01" y2="1.37" xlink:href="#linear-gradient"/>
  </defs>
  <g id="Layer_1-2" data-name="Layer 1">
    <path class="cls-2" d="m90.11,9.23c-.89-.92,12.93,0,13.86,0s.91,3.04,0,3.37-9.26-.33-10.16,0-.9,4.94.02,4.94h8.34c.89,0,.89,3.69-.03,3.69h-8.54c-.69,0-.69,5.54.23,5.54h10.14c.94,0,.91,3.68,0,3.69s-12.97,0-13.86,0-.89-19.38,0-21.22Z"/>
    <path class="cls-3" d="m107.59,30.63c3.59.59,4.58.37,4.72,0,.03-.07,0-.12,0-.94v-3.77c0-1.75-.21-3.8-.32-5.44-.12-1.91-.07-2.87.32-3.04.91-.43,3.23,3.23,6.6,6.6.63.63,1.26,1.26,1.89,1.89s1.28,1.23,1.89,1.89c1.65,1.79,1.83,2.43,2.83,2.83.28.11,1.2.42,1.89,0,.8-.49.85-1.7.94-3.77,0,0,0,0,0-2.83v-2.83c0-2.81,0-2.73,0-2.83,0-.95,0-1.41,0-2.31,0-.19,0-.29,0-.52,0-1.03,0-1.74,0-1.89,0-1.52.01-4.42-.94-4.72-.03,0-.01,0-.94,0-.57,0-.85,0-.94,0-1.51-.01-1.69-.19-1.89,0-.22.22-.04.53,0,1.89,0,.31,0,.63,0,.94,0,1.57,0,3.14,0,4.72.01,4.89.33,5.51,0,5.66-1.6.7-11.78-12.49-14.15-13.2-.31-.09-1.54-.46-1.89,0-.08.11-.02.2,0,.94v20.75Z"/>
    <path class="cls-4" d="m52.5,21.68l-7.02-12.03s-.25-.37-.67-.36c-.39.01-.6.33-.62.36-3.4,5.63-6.8,11.26-10.2,16.89-.26.31-.18.58,0,.83l1.75,3.48c.31.26.62.29.93,0l7.53-13.29c.09-.21.29-.35.51-.36.21,0,.4.1.51.28,2.52,4.46,5.03,8.92,7.55,13.37.09.28.88.28.98,0,0,0,3.14-3.97,2.14-4.2"/>
    <path class="cls-4" d="m4.08,8.68l7.88,15.14c.24.51.86.51,1.16,0l6.37-11.65c.26-.27.5-.28.74.03l6.68,11.62c.29.45.77.51,1.04,0l5.45-10.41c.11-.17.12-.34,0-.52l-2.26-3.66c-.13-.24-.12-.44.17-.55h8.2c.29.06.43.22.4.48l-11.71,21.92c-.38.53-.84.48-1.34,0l-6.62-11.37c-.23-.23-.45-.24-.67,0l-6.23,11.37c-.45.49-.93.51-1.44,0L.04,9.37c-.09-.31-.03-.55.26-.69h3.78Z"/>
    <path class="cls-3" d="m82.24,15.32c-1.64.57-2.67-1.72-5-2-2.18-.27-5.12,1.27-6,4-.88,2.74.64,5.7,3,7,1.99,1.1,4.98,1.35,6,0,1.28-1.7-1.2-5.09,0-6,.42-.32.78.07,3,0,1.41-.05,1.61-.22,2,0,1.08.59,1.03,2.65,1,4-.03,1.41-.08,3.46-1,5-2.12,3.56-9.03,4.74-14,2-3.86-2.13-6.93-6.83-6-12,.95-5.23,5.49-8.14,9-9,5.15-1.26,10.87,1.18,11,3,.04.51-.37,1.09-1,2-.63.9-1.2,1.72-2,2Z"/>
    <polyline class="cls-4" points="57.97 8.63 62.05 8.63 62.05 31.04 57.97 31.04 57.97 9.14"/>
    <polyline class="cls-3" points="131.76 8.46 135.84 8.46 135.84 30.87 131.76 30.87 131.76 8.97"/>
    <path class="cls-5" d="m57.19,6.48h5.43c.21-.11.32-.34.24-.77l-2.6-5.45c-.22-.33-.44-.37-.64,0l-2.53,5.52c-.11.31-.08.55.1.7Z"/>
    <path class="cls-1" d="m130.66,6.51h5.43c.21-.11.32-.34.24-.77l-2.6-5.45c-.22-.33-.44-.37-.64,0l-2.53,5.52c-.11.31-.08.55.1.7Z"/>
    <path class="cls-2" d="m139.84,8.87c-.92-.94,13.28,0,14.24,0s.93,3.09,0,3.42-9.51-.33-10.44,0-.93,5.02.02,5.02h8.57c.92,0,.92,3.75-.03,3.75h-8.77c-.71,0-.71,5.63.24,5.63h10.42c.96,0,.93,3.74,0,3.75s-13.33,0-14.24,0-.92-19.7,0-21.58Z"/>
  </g>
</svg>